# xmcd
#
# Track frame offsets:
#	183
#	24283
#	60920
#	80983
#	99383
#	129953
#
# Disc length: 2738 seconds
#
# Revision: 9
# Processed by: cddbd v1.5.2PL0 Copyright (c) Steve Scherf et al.
# Submitted via: audiograbber 1.83.01
#
DISCID=3e0ab006
DTITLE=Status Quo - Status Quo Live [CD 1)
DYEAR=1977
DGENRE=Rock
TTITLE0=Junior's Wailing [live]
TTITLE1=a) Backwater  b) Just Take Me [live]
TTITLE2=Is There A Better Way [live]
TTITLE3=In My Chair [live]
TTITLE4=a) Little Lady  b) Most Of The Time [live]
TTITLE5=Forty-Five Hundred Times [live]
EXTD=
EXTT0=
EXTT1=
EXTT2=
EXTT3=
EXTT4=
EXTT5=
PLAYORDER=
